<svg width="73" height="73" viewBox="0 0 73 73" fill="none" xmlns="http://www.w3.org/2000/svg">
<circle cx="36.5" cy="36.5" r="36.25" fill="black" stroke="white" stroke-width="0.5"/>
<path d="M13.154 34.897L34.5406 13.5118L34.4135 13.3846L34.5406 13.5118C35.5238 12.5287 37.1178 12.5287 38.101 13.5118C39.0841 14.4949 39.0841 16.0888 38.101 17.0719L16.7144 38.4571C15.7312 39.4402 14.1372 39.4402 13.154 38.4571C12.1709 37.474 12.1709 35.8801 13.154 34.897Z" fill="white" stroke="white" stroke-width="0.5"/>
<path d="M45.4441 24.4144L45.4441 24.4144C46.4271 23.4314 48.0213 23.4313 49.0046 24.4145C49.9875 25.3976 49.9875 26.9914 49.0046 27.9745C49.0045 27.9745 49.0045 27.9745 49.0045 27.9745L27.6178 49.3598C26.6347 50.3428 25.0406 50.3428 24.0575 49.3598C23.0743 48.3765 23.0743 46.7827 24.0575 45.7997L23.889 45.6312L24.0575 45.7997L45.4441 24.4144Z" fill="white" stroke="white" stroke-width="0.5"/>
<path d="M55.9278 34.8975L55.9279 34.8974C56.9108 33.9144 58.505 33.9144 59.4883 34.8975C60.4712 35.8806 60.4712 37.4745 59.4883 38.4576C59.4883 38.4576 59.4883 38.4576 59.4883 38.4576L38.1016 59.8429C37.1259 60.8184 35.5486 60.8258 34.5638 59.8652L34.5412 59.8426C33.5581 58.8596 33.5581 57.2658 34.5412 56.2828L34.3647 56.1063L34.5412 56.2828L55.9278 34.8975Z" fill="white" stroke="white" stroke-width="0.5"/>
<path d="M52.9675 29.4686L52.9675 29.4686C53.3329 29.1031 53.9259 29.1031 54.2913 29.4686C54.6567 29.8341 54.6567 30.4268 54.2913 30.7923C54.2913 30.7923 54.2913 30.7923 54.2913 30.7923L45.6248 39.4582L45.6248 39.4582C45.2594 39.8238 44.6665 39.8238 44.301 39.4583C43.9356 39.0927 43.9356 38.5 44.301 38.1345L52.9675 29.4686Z" fill="white" stroke="white" stroke-width="0.5"/>
<path d="M18.6061 42.5851L18.6061 42.5851L27.2726 33.9191C27.6381 33.5535 28.2308 33.5535 28.5964 33.9191C28.962 34.2846 28.962 34.8772 28.5964 35.2428L19.9299 43.9086L19.9299 43.9086C19.5643 44.2743 18.9717 44.2743 18.6061 43.9086L18.6061 43.9086C18.2405 43.5431 18.2405 42.9505 18.6061 42.5851Z" fill="white" stroke="white" stroke-width="0.5"/>
</svg>
